#!OML:ASF H:\Swim 2\Project 1\Capture day 1\Session 1\male.ASF
:FULLY-SPECIFIED
:DEGREES
2281
root 2.40363 14.9147 9.31009 107.675 -74.8484 -8.01264
lowerback -23.7418 7.08124 2.61598
upperback -1.83597 9.13307 -3.6121
thorax 12.1914 4.51772 -2.40844
lowerneck -18.0591 -5.13632 -6.8592
upperneck 12.8405 -6.57964 8.09609
head 7.40899 -2.74346 3.00219
rclavicle 1.59028e-014 5.14852e-014
rhumerus 70.6317 -41.8791 -6.47223
rradius 35.9947
rwrist -40.1792
rhand 24.3147 -11.417
rfingers 7.12502
rthumb 48.5312 -33.3781
lclavicle 1.59028e-014 5.14852e-014
lhumerus 838.455 18.2385 -1039.84
lradius 21.4657
lwrist 385.719
lhand -5.17434 -10.919
lfingers 7.12502
lthumb 20.6259 18.0051
rfemur -57.4511 4.55374 24.3655
rtibia 56.804
rfoot 31.8885 -1.12202
rtoes 10.1907
lfemur -62.1763 7.93223 -22.8799
ltibia 75.6378
lfoot 15.9491 -6.93682
ltoes 5.10864
2282
root 2.46329 14.903 9.30039 108.461 -74.8693 -8.99286
lowerback -23.6124 7.19901 2.55706
upperback -1.24395 9.31249 -3.41509
thorax 12.7757 4.59665 -2.06929
lowerneck -18.2181 -5.35832 -6.96357
upperneck 13.2838 -6.87346 8.10517
head 7.60896 -2.8763 2.98337
rclavicle -4.77083e-014 -5.1684e-014
rhumerus 72.2113 -40.8275 -7.64264
rradius 35.782
rwrist -39.1475
rhand 21.1728 -12.6892
rfingers 7.12502
rthumb 45.626 -35.9379
lclavicle -4.77083e-014 -5.1684e-014
lhumerus 839.015 16.8282 -1039.69
lradius 21.5005
lwrist 385.522
lhand -7.89166 -9.74742
lfingers 7.12502
lthumb 18.0131 19.4384
rfemur -57.6808 4.46049 24.5262
rtibia 55.0574
rfoot 31.7951 -1.03731
rtoes 10.0997
lfemur -63.0193 7.69073 -22.955
ltibia 74.2245
lfoot 16.9871 -7.23529
ltoes 5.3973
2283
root 2.52156 14.8916 9.29271 109.164 -74.8819 -9.87803
lowerback -23.4696 7.32805 2.50853
upperback -0.646402 9.49934 -3.20369
thorax 13.3607 4.67449 -1.71642
lowerneck -18.2368 -5.53608 -7.09228
upperneck 13.4773 -7.07169 7.99412
head 7.69162 -2.98314 2.94153
rclavicle -1.11319e-013 -1.49188e-013
rhumerus 73.4536 -39.8615 -8.5015
rradius 35.4538
rwrist -37.473
rhand 17.489 -13.9985
rfingers 7.12502
rthumb 42.1891 -38.5249
lclavicle -1.11319e-013 -1.49188e-013
lhumerus 839.59 15.3656 -1039.28
lradius 21.235
lwrist 384.505
lhand -10.8567 -8.34709
lfingers 7.12502
lthumb 15.1585 21.0777
rfemur -57.897 4.29574 24.7577
rtibia 53.282
rfoot 31.6722 -1.05624
rtoes 10.0173
lfemur -63.7864 7.45052 -23.0298
ltibia 72.6038
lfoot 18.0326 -7.6315
ltoes 6.71492
2284
root 2.57801 14.8806 9.28668 109.762 -74.8981 -10.6583
lowerback -23.3111 7.46356 2.44106
upperback -0.0403164 9.69377 -2.97036
thorax 13.9421 4.7488 -1.32525
lowerneck -18.2347 -5.74156 -7.24002
upperneck 13.5816 -7.29006 7.83787
head 7.74176 -3.10664 2.88472
rclavicle -6.67916e-014 -1.04362e-014
rhumerus 74.3122 -38.9848 -9.01617
rradius 35.0413
rwrist -35.27
rhand 13.4976 -15.0693
rfingers 7.12502
rthumb 38.4357 -40.7487
lclavicle -6.67916e-014 -1.04362e-014
lhumerus 840.293 13.6136 -1038.3
lradius 20.6018
lwrist 382.543
lhand -13.5573 -7.06847
lfingers 7.12502
lthumb 12.556 22.5342
rfemur -58.0934 4.05104 25.0616
rtibia 51.5098
rfoot 31.4388 -1.29331
rtoes 9.83927
lfemur -64.4639 7.21584 -23.1207
ltibia 70.8179
lfoot 18.9459 -7.89799
ltoes 8.87611
2285
root 2.63243 14.8699 9.28186 110.225 -74.9202 -11.3082
lowerback -23.1389 7.60072 2.35394
upperback 0.572698 9.88972 -2.7193
thorax 14.5191 4.81627 -0.90218
lowerneck -18.2393 -5.9743 -7.40551
upperneck 13.6401 -7.53527 7.66731
head 7.7801 -3.24571 2.82185
rclavicle 1.27222e-014 -6.45336e-014
rhumerus 74.7887 -38.1905 -9.23475
rradius 34.6006
rwrist -32.7814
rhand 9.49987 -15.7623
rfingers 7.12502
rthumb 34.6518 -42.3989
lclavicle 1.27222e-014 -6.45336e-014
lhumerus 841.12 11.4483 -1036.62
lradius 19.6658
lwrist 379.785
lhand -15.9332 -6.19402
lfingers 7.12502
lthumb 10.2646 23.5355
rfemur -58.2676 3.72414 25.4429
rtibia 49.7655
rfoot 31.0215 -1.74105
rtoes 9.31572
lfemur -65.0462 6.98671 -23.2282
ltibia 68.9099
lfoot 19.6064 -7.95381
ltoes 11.1973
2286
root 2.68447 14.8592 9.27774 110.562 -74.9452 -11.8418
lowerback -22.957 7.73765 2.24155
upperback 1.18767 10.0861 -2.45321
thorax 15.0871 4.87559 -0.447517
lowerneck -18.2775 -6.22682 -7.58275
upperneck 13.7041 -7.80505 7.50971
head 7.82899 -3.39506 2.76079
rclavicle -6.99722e-014 -1.69961e-014
rhumerus 74.852 -37.4701 -9.16133
rradius 34.2325
rwrist -30.4106
rhand 5.68552 -15.9762
rfingers 7.12502
rthumb 31.0236 -43.3732
lclavicle -6.99722e-014 -1.69961e-014
lhumerus 841.961 8.91541 -1034.39
lradius 18.6057
lwrist 376.646
lhand -18.0355 -5.91712
lfingers 7.12502
lthumb 8.23612 23.9023
rfemur -58.4199 3.32322 25.9026
rtibia 48.0634
rfoot 30.4121 -2.37658
rtoes 8.39745
lfemur -65.5312 6.7736 -23.3468
ltibia 66.9202
lfoot 19.9769 -7.81001
ltoes 13.1951
2287
root 2.73372 14.8485 9.274 110.786 -74.9717 -12.2739
lowerback -22.7661 7.87216 2.11116
upperback 1.79635 10.2801 -2.18576
thorax 15.6402 4.92661 0.0177369
lowerneck -18.3562 -6.48575 -7.74995
upperneck 13.7898 -8.09023 7.3824
head 7.89432 -3.54714 2.70466
rclavicle 1.90833e-014 4.47266e-015
rhumerus 74.5088 -36.8088 -8.84179
rradius 34.0392
rwrist -28.5318
rhand 2.23432 -15.7914
rfingers 7.12502
rthumb 27.7287 -43.7668
lclavicle 1.90833e-014 4.47266e-015
lhumerus 842.608 6.35594 -1032.06
lradius 17.7138
lwrist 373.886
lhand -19.9811 -6.26995
lfingers 7.12502
lthumb 6.35809 23.6146
rfemur -58.5491 2.868 26.4241
rtibia 46.4091
rfoot 29.6724 -3.13801
rtoes 7.21735
lfemur -65.918 6.58401 -23.4706
ltibia 64.8845
lfoot 20.0516 -7.54886
ltoes 14.4849
2288
root 2.78002 14.8376 9.27034 110.909 -74.9927 -12.617
lowerback -22.5666 8.00499 1.98025
upperback 2.39377 10.4693 -1.92616
thorax 16.1778 4.97052 0.472542
lowerneck -18.4764 -6.74046 -7.89371
upperneck 13.8988 -8.37961 7.28563
head 7.97551 -3.69578 2.65267
rclavicle -2.54444e-014 6.77856e-014
rhumerus 73.8441 -36.1931 -8.38194
rradius 34.0612
rwrist -27.3651
rhand -0.835826 -15.4271
rfingers 7.12502
rthumb 24.7896 -43.8405
lclavicle -2.54444e-014 6.77856e-014
lhumerus 843.024 3.95259 -1029.89
lradius 17.084
lwrist 371.984
lhand -21.7425 -7.24943
lfingers 7.12502
lthumb 4.65739 22.6794
rfemur -58.6523 2.37529 26.9969
rtibia 44.805
rfoot 28.9301 -3.92415
rtoes 6.03591
lfemur -66.2098 6.42911 -23.5913
ltibia 62.8361
lfoot 19.8767 -7.25643
ltoes 15.0722
2289
root 2.82312 14.8269 9.26672 110.952 -75.0108 -12.8953
lowerback -22.3596 8.13674 1.86249
upperback 2.9781 10.6536 -1.6886
thorax 16.7042 5.00984 0.893385
lowerneck -18.6244 -6.97736 -7.98925
upperneck 14.0043 -8.65986 7.21604
head 8.05895 -3.83423 2.6019
rclavicle -6.99722e-014 -9.28324e-014
rhumerus 72.9195 -35.6266 -7.8418
rradius 34.3133
rwrist -27.0464
rhand -3.56068 -14.984
rfingers 7.12502
rthumb 22.1758 -43.732
lclavicle -6.99722e-014 -9.28324e-014
lhumerus 843.21 1.89258 -1028.12
lradius 16.7374
lwrist 371.097
lhand -23.3917 -8.43172
lfingers 7.12502
lthumb 3.06485 21.526
rfemur -58.7282 1.85968 27.5992
rtibia 43.2577
rfoot 28.3081 -4.61304
rtoes 5.01739
lfemur -66.4097 6.31758 -23.7154
ltibia 60.8055
lfoot 19.5293 -6.99813
ltoes 15.2169
2290
root 2.86294 14.8167 9.26287 110.932 -75.0286 -13.1234
lowerback -22.1448 8.26906 1.75994
upperback 3.55037 10.8349 -1.47239
thorax 17.2211 5.04621 1.28051
lowerneck -18.7709 -7.1961 -8.05782
upperneck 14.071 -8.92497 7.17203
head 8.12812 -3.96206 2.55692
rclavicle -3.18055e-014 3.53837e-014
rhumerus 71.773 -35.0999 -7.21671
rradius 34.8069
rwrist -27.636
rhand -6.04888 -14.5191
rfingers 7.12502
rthumb 19.7854 -43.5321
lclavicle -3.18055e-014 3.53837e-014
lhumerus 843.206 0.294253 -1026.89
lradius 16.6702
lwrist 371.292
lhand -24.7953 -9.57145
lfingers 7.12502
lthumb 1.70924 20.4015
rfemur -58.7787 1.33505 28.2114
rtibia 41.7824
rfoot 27.8889 -5.10481
rtoes 4.21724
lfemur -66.5263 6.25659 -23.851
ltibia 58.825
lfoot 19.0398 -6.82204
ltoes 15.0211
